<?xml version="1.0" encoding="UTF-8" standalone="no"?>
<!-- Created with Inkscape (http://www.inkscape.org/) -->

<svg
   version="1.1"
   id="svg1"
   width="21.388041"
   height="113.6675"
   viewBox="0 0 21.388041 113.66749"
   sodipodi:docname="pipette.svg"
   inkscape:version="1.4.3 (0d15f75, 2025-12-25)"
   xmlns:inkscape="http://www.inkscape.org/namespaces/inkscape"
   xmlns:sodipodi="http://sodipodi.sourceforge.net/DTD/sodipodi-0.dtd"
   xmlns="http://www.w3.org/2000/svg"
   xmlns:svg="http://www.w3.org/2000/svg">
  <defs
     id="defs1" />
  <sodipodi:namedview
     id="namedview1"
     pagecolor="#ffffff"
     bordercolor="#000000"
     borderopacity="0.25"
     inkscape:showpageshadow="2"
     inkscape:pageopacity="0.0"
     inkscape:pagecheckerboard="0"
     inkscape:deskcolor="#d1d1d1"
     showguides="false"
     inkscape:zoom="4.0994517"
     inkscape:cx="-0.48787012"
     inkscape:cy="62.569343"
     inkscape:window-width="1920"
     inkscape:window-height="991"
     inkscape:window-x="-9"
     inkscape:window-y="-9"
     inkscape:window-maximized="1"
     inkscape:current-layer="g1" />
  <g
     inkscape:groupmode="layer"
     inkscape:label="Image"
     id="g1"
     transform="translate(-159.22893,-74.860814)">
    <path
       id="rect1"
       style="fill:#000000;fill-opacity:1;stroke-width:0.377953"
       d="m 162.09612,74.860814 c -1.58799,0 -2.86719,1.277244 -2.86719,2.865235 v 19.105468 c 0,1.587988 1.2792,2.867188 2.86719,2.867188 h 0.49609 c -0.0556,0.22359 -0.0859,0.457935 -0.0859,0.699215 v 3.23633 c 0,1.46697 1.09157,2.66895 2.50976,2.84375 -0.007,0.0803 -0.01,0.16201 -0.01,0.24414 v 7.99219 55.26953 c 0,0.0636 0.004,0.1269 0.008,0.18945 l 0.14844,0.74219 3.23632,16.21484 c 0.36751,1.84125 1.07205,1.86665 1.57813,0.0586 l 4.6289,-16.53906 c -0.002,-0.002 -0.007,-0.006 -0.01,-0.008 -10e-4,-10e-4 -0.003,-0.003 -0.004,-0.004 0.046,-0.19852 0.0716,-0.40692 0.0742,-0.61914 0.351,-1.64484 0.0813,-3.71349 0,-5.44922 -0.0245,-0.52293 -0.0317,-1.01542 0,-1.45703 v -56.39062 c 0,-0.0766 -0.004,-0.15343 -0.01,-0.22852 1.50209,-0.0937 2.68359,-1.33285 2.68359,-2.85937 v -3.23633 c 0,-0.24128 -0.0284,-0.475625 -0.084,-0.699215 h 0.49609 c 1.58799,0 2.86523,-1.2792 2.86523,-2.867188 V 77.726049 c 0,-1.587991 -1.27724,-2.865235 -2.86523,-2.865235 z" />
  </g>
</svg>
