<?xml version="1.0" encoding="UTF-8" standalone="no"?>
<!-- Created with Inkscape (http://www.inkscape.org/) -->

<svg
   version="1.1"
   id="svg1"
   width="77.274193"
   height="125.91415"
   viewBox="0 0 77.274193 125.91413"
   sodipodi:docname="pipetteTips.svg"
   inkscape:version="1.4.3 (0d15f75, 2025-12-25)"
   xmlns:inkscape="http://www.inkscape.org/namespaces/inkscape"
   xmlns:sodipodi="http://sodipodi.sourceforge.net/DTD/sodipodi-0.dtd"
   xmlns="http://www.w3.org/2000/svg"
   xmlns:svg="http://www.w3.org/2000/svg">
  <defs
     id="defs1" />
  <sodipodi:namedview
     id="namedview1"
     pagecolor="#ffffff"
     bordercolor="#000000"
     borderopacity="0.25"
     inkscape:showpageshadow="2"
     inkscape:pageopacity="0.0"
     inkscape:pagecheckerboard="0"
     inkscape:deskcolor="#d1d1d1"
     showguides="false"
     inkscape:zoom="2.0497259"
     inkscape:cx="-27.808597"
     inkscape:cy="100.25731"
     inkscape:window-width="1920"
     inkscape:window-height="991"
     inkscape:window-x="-9"
     inkscape:window-y="-9"
     inkscape:window-maximized="1"
     inkscape:current-layer="g1" />
  <g
     inkscape:groupmode="layer"
     inkscape:label="Image"
     id="g1"
     transform="translate(-205.27292,-93.489533)">
    <path
       id="rect1"
       style="fill:#000000;fill-opacity:1;stroke-width:0.377953"
       d="m 236.08318,105.73618 c -1.58799,0 -2.86719,1.27724 -2.86719,2.86524 v 19.10546 c 0,1.58799 1.2792,2.86719 2.86719,2.86719 h 0.49609 c -0.0556,0.22359 -0.0859,0.45794 -0.0859,0.69922 v 3.23633 c 0,1.46697 1.09157,2.66895 2.50976,2.84375 -0.007,0.0803 -0.01,0.16201 -0.01,0.24414 v 7.99219 55.26953 c 0,0.0636 0.004,0.1269 0.008,0.18945 l 0.14844,0.74219 3.23632,16.21484 c 0.36753,1.84125 1.07205,1.86665 1.57813,0.0586 l 4.6289,-16.53906 c -0.002,-0.002 -0.007,-0.006 -0.01,-0.008 -0.001,-10e-4 -0.003,-0.003 -0.004,-0.004 0.046,-0.19852 0.0716,-0.40692 0.0742,-0.61914 0.351,-1.64484 0.0813,-3.71349 0,-5.44922 -0.0245,-0.52293 -0.0317,-1.01542 0,-1.45703 v -56.39062 c 0,-0.0766 -0.004,-0.15343 -0.01,-0.22852 1.50209,-0.0937 2.68359,-1.33285 2.68359,-2.85937 v -3.23633 c 0,-0.24128 -0.0284,-0.47563 -0.084,-0.69922 h 0.49611 c 1.58797,0 2.86521,-1.2792 2.86521,-2.86719 v -19.10519 c 0,-1.588 -1.27724,-2.86524 -2.86521,-2.86524 z" />
    <path
       id="rect1-8"
       style="fill:#000000;fill-opacity:1;stroke-width:0.377953"
       d="m 264.02626,93.489533 c -1.58799,0 -2.86719,1.27724 -2.86719,2.86524 v 19.105457 c 0,1.58799 1.2792,2.86719 2.86719,2.86719 h 0.49609 c -0.0556,0.22359 -0.0859,0.45794 -0.0859,0.69922 v 3.23633 c 0,1.46697 1.09157,2.66895 2.50976,2.84375 -0.007,0.0803 -0.01,0.16201 -0.01,0.24414 v 7.99219 55.26953 c 0,0.0636 0.004,0.1269 0.008,0.18945 l 0.14844,0.74219 3.23632,16.21484 c 0.36751,1.84125 1.07205,1.86665 1.57813,0.0586 l 4.6289,-16.53906 c -0.002,-0.002 -0.007,-0.006 -0.01,-0.008 -0.001,-0.001 -0.003,-0.003 -0.004,-0.004 0.046,-0.19852 0.0716,-0.40692 0.0742,-0.61914 0.351,-1.64484 0.0813,-3.71349 0,-5.44922 -0.0245,-0.52293 -0.0317,-1.01542 0,-1.45703 v -56.39062 c 0,-0.0766 -0.004,-0.15343 -0.01,-0.22852 1.50209,-0.0937 2.68359,-1.33285 2.68359,-2.85937 v -3.23633 c 0,-0.24128 -0.0284,-0.47563 -0.084,-0.69922 h 0.49609 c 1.58799,0 2.86523,-1.2792 2.86523,-2.86719 V 96.354773 c 0,-1.588 -1.27724,-2.86524 -2.86523,-2.86524 z" />
    <path
       id="rect1-1"
       style="fill:#000000;fill-opacity:1;stroke-width:0.377953"
       d="m 208.14011,93.489533 c -1.58799,0 -2.86719,1.27724 -2.86719,2.86524 v 19.105467 c 0,1.58799 1.2792,2.86719 2.86719,2.86719 h 0.49609 c -0.0556,0.22359 -0.0859,0.45794 -0.0859,0.69922 v 3.23633 c 0,1.46697 1.09157,2.66895 2.50976,2.84375 -0.007,0.0803 -0.01,0.16201 -0.01,0.24414 v 7.99219 55.26953 c 0,0.0636 0.004,0.1269 0.008,0.18945 l 0.14844,0.74219 3.23632,16.21484 c 0.36751,1.84125 1.07205,1.86665 1.57813,0.0586 l 4.6289,-16.53906 c -0.002,-0.002 -0.007,-0.006 -0.01,-0.008 -0.001,-0.001 -0.003,-0.003 -0.004,-0.004 0.046,-0.19852 0.0716,-0.40692 0.0742,-0.61914 0.351,-1.64484 0.0813,-3.71349 0,-5.44922 -0.0245,-0.52293 -0.0317,-1.01542 0,-1.45703 V 125.3506 c 0,-0.0766 -0.004,-0.15343 -0.01,-0.22852 1.50209,-0.0937 2.68359,-1.33285 2.68359,-2.85937 v -3.23633 c 0,-0.24128 -0.0284,-0.47563 -0.084,-0.69922 h 0.49609 c 1.58799,0 2.86523,-1.2792 2.86523,-2.86719 V 96.354773 c 0,-1.588 -1.27724,-2.86524 -2.86523,-2.86524 z" />
  </g>
</svg>
