{
 "asset" : {
  "generator" : "Generated by Pixyz Studio 2021.1 Update 1",
  "version" : "2.0"},
 "nodes" : [
  {
   "name" : "black_metal",
   "mesh" : 0},
  {
   "name" : "sub_scanner_channel",
   "matrix" : [
    1120,
    0,
    0,
    0,
    0,
    50,
    0,
    0,
    0,
    0,
    150,
    0,
    556,
    -16.823,
    675.543,
    1],
   "children" : [
    0]},
  {
   "name" : "Color #2d523aff",
   "matrix" : [
    1,
    0,
    0,
    0,
    0,
    1,
    0,
    0,
    0,
    0,
    1,
    0,
    747.5,
    -72.01,
    116.55,
    1],
   "mesh" : 1},
  {
   "name" : "Color #4b4b4bff",
   "matrix" : [
    1,
    0,
    0,
    0,
    0,
    1,
    0,
    0,
    0,
    0,
    1,
    0,
    747.5,
    -72.01,
    116.55,
    1],
   "mesh" : 2},
  {
   "name" : "Color #959595ff",
   "matrix" : [
    1,
    0,
    0,
    0,
    0,
    0,
    -1,
    0,
    0,
    1,
    0,
    0,
    103.5,
    7.5,
    1001,
    1],
   "mesh" : 3},
  {
   "name" : "Color #007fffff",
   "matrix" : [
    1,
    0,
    0,
    0,
    0,
    1,
    -0,
    0,
    0,
    0,
    1,
    0,
    747.5,
    -72.01,
    116.55,
    1],
   "mesh" : 4},
  {
   "name" : "track_numbers",
   "matrix" : [
    1,
    0,
    0,
    0,
    0,
    0,
    -1,
    0,
    0,
    1,
    0,
    0,
    1589.5,
    7.5,
    750.5,
    1],
   "mesh" : 5},
  {
   "name" : "870100_STARPLUS_ASM",
   "matrix" : [
    1,
    0,
    0,
    0,
    0,
    1,
    0,
    0,
    0,
    0,
    1,
    0,
    -518.04,
    18.233,
    -639.8,
    1],
   "children" : [
    1,
    2,
    3,
    4,
    5,
    6],
   "extras" : {
    "__STEP/ProductName" : "870100_STARPLUS_ASM",
    "__STEP/ProductID" : "870100_STARPLUS_ASM",
    "__STEP/Description" : "NOT SPECIFIED",
    "__STEP/ProductDefinition" : "design",
    "__STEP/MakeOrBuy" : ".MADE."}},
  {
   "name" : "870100_starplus_asm.stp",
   "children" : [
    7]}],
 "scenes" : [
  {
   "name" : "Root",
   "nodes" : [
    8]}],
 "scene" : 0,
 "buffers" : [
  {
   "byteLength" : 8310288,
   "uri" : "starplus_deck.bin"}],
 "bufferViews" : [
  {
   "buffer" : 0,
   "byteOffset" : 0,
   "byteLength" : 1639800,
   "target" : 34963},
  {
   "buffer" : 0,
   "byteOffset" : 1639800,
   "byteLength" : 102360,
   "target" : 34963},
  {
   "buffer" : 0,
   "byteOffset" : 1742160,
   "byteLength" : 4925808,
   "byteStride" : 12,
   "target" : 34962},
  {
   "buffer" : 0,
   "byteOffset" : 8309904,
   "byteLength" : 384,
   "byteStride" : 16,
   "target" : 34962},
  {
   "buffer" : 0,
   "byteOffset" : 6667968,
   "byteLength" : 1641936,
   "byteStride" : 8,
   "target" : 34962}],
 "accessors" : [
  {
   "bufferView" : 0,
   "count" : 409950,
   "componentType" : 5125,
   "type" : "SCALAR",
   "byteOffset" : 0,
   "min" : [
    0],
   "max" : [
    183099]},
  {
   "bufferView" : 1,
   "count" : 36,
   "componentType" : 5123,
   "type" : "SCALAR",
   "byteOffset" : 0,
   "min" : [
    0],
   "max" : [
    23]},
  {
   "bufferView" : 1,
   "count" : 6060,
   "componentType" : 5123,
   "type" : "SCALAR",
   "byteOffset" : 72,
   "min" : [
    0],
   "max" : [
    3799]},
  {
   "bufferView" : 1,
   "count" : 38820,
   "componentType" : 5123,
   "type" : "SCALAR",
   "byteOffset" : 12192,
   "min" : [
    0],
   "max" : [
    15735]},
  {
   "bufferView" : 1,
   "count" : 180,
   "componentType" : 5123,
   "type" : "SCALAR",
   "byteOffset" : 89832,
   "min" : [
    0],
   "max" : [
    119]},
  {
   "bufferView" : 1,
   "count" : 6084,
   "componentType" : 5123,
   "type" : "SCALAR",
   "byteOffset" : 90192,
   "min" : [
    0],
   "max" : [
    2461]},
  {
   "bufferView" : 3,
   "count" : 24,
   "componentType" : 5126,
   "type" : "VEC4",
   "byteOffset" : 0,
   "min" : [
    -1.000000,
    -0.000000,
    -1.000000,
    1.000000],
   "max" : [
    1.000000,
    -0.000000,
    1.000000,
    1.000000]},
  {
   "bufferView" : 2,
   "count" : 24,
   "componentType" : 5126,
   "type" : "VEC3",
   "byteOffset" : 0,
   "min" : [
    -0.500000,
    -0.500000,
    -0.500000],
   "max" : [
    0.500000,
    0.500000,
    0.500000]},
  {
   "bufferView" : 2,
   "count" : 24,
   "componentType" : 5126,
   "type" : "VEC3",
   "byteOffset" : 288,
   "min" : [
    -1.000000,
    -1.000000,
    -1.000000],
   "max" : [
    1.000000,
    1.000000,
    1.000000]},
  {
   "bufferView" : 2,
   "count" : 3800,
   "componentType" : 5126,
   "type" : "VEC3",
   "byteOffset" : 576,
   "min" : [
    -540.000000,
    79.910004,
    -1.750000],
   "max" : [
    1258.349976,
    93.010002,
    1.200000]},
  {
   "bufferView" : 2,
   "count" : 3800,
   "componentType" : 5126,
   "type" : "VEC3",
   "byteOffset" : 46176,
   "min" : [
    -1.000000,
    -1.000000,
    -1.000000],
   "max" : [
    1.000000,
    1.000000,
    1.000000]},
  {
   "bufferView" : 2,
   "count" : 15736,
   "componentType" : 5126,
   "type" : "VEC3",
   "byteOffset" : 91776,
   "min" : [
    -749.500000,
    54.009998,
    -23.500000],
   "max" : [
    1327.098999,
    99.010002,
    632.450012]},
  {
   "bufferView" : 2,
   "count" : 15736,
   "componentType" : 5126,
   "type" : "VEC3",
   "byteOffset" : 280608,
   "min" : [
    -1.000000,
    -1.000000,
    -1.000000],
   "max" : [
    1.000000,
    1.000000,
    1.000000]},
  {
   "bufferView" : 2,
   "count" : 183100,
   "componentType" : 5126,
   "type" : "VEC3",
   "byteOffset" : 469440,
   "min" : [
    -107.000000,
    -0.000000,
    -28.000000],
   "max" : [
    2038.699951,
    945.500000,
    83.000000]},
  {
   "bufferView" : 2,
   "count" : 183100,
   "componentType" : 5126,
   "type" : "VEC3",
   "byteOffset" : 2666640,
   "min" : [
    -1.000000,
    -1.000000,
    -1.000000],
   "max" : [
    1.000000,
    1.000000,
    1.000000]},
  {
   "bufferView" : 2,
   "count" : 120,
   "componentType" : 5126,
   "type" : "VEC3",
   "byteOffset" : 4863840,
   "min" : [
    -524.750000,
    79.910004,
    -0.050000],
   "max" : [
    1244.099976,
    93.010002,
    -0.050000]},
  {
   "bufferView" : 2,
   "count" : 120,
   "componentType" : 5126,
   "type" : "VEC3",
   "byteOffset" : 4865280,
   "min" : [
    -0.000000,
    0.000000,
    -1.000000],
   "max" : [
    0.000000,
    0.000000,
    -1.000000]},
  {
   "bufferView" : 2,
   "count" : 2462,
   "componentType" : 5126,
   "type" : "VEC3",
   "byteOffset" : 4866720,
   "min" : [
    -1373.971802,
    -234.676468,
    0.000000],
   "max" : [
    413.011139,
    29.299999,
    0.050000]},
  {
   "bufferView" : 2,
   "count" : 2462,
   "componentType" : 5126,
   "type" : "VEC3",
   "byteOffset" : 4896264,
   "min" : [
    -1.000000,
    -1.000000,
    -1.000000],
   "max" : [
    1.000000,
    1.000000,
    1.000000]},
  {
   "bufferView" : 4,
   "count" : 24,
   "componentType" : 5126,
   "type" : "VEC2",
   "byteOffset" : 0,
   "min" : [
    0.000977,
    0.002584],
   "max" : [
    0.973979,
    0.999023]},
  {
   "bufferView" : 4,
   "count" : 3800,
   "componentType" : 5126,
   "type" : "VEC2",
   "byteOffset" : 192,
   "min" : [
    0.000977,
    0.002288],
   "max" : [
    0.970786,
    0.999023]},
  {
   "bufferView" : 4,
   "count" : 15736,
   "componentType" : 5126,
   "type" : "VEC2",
   "byteOffset" : 30592,
   "min" : [
    0.000669,
    0.001993],
   "max" : [
    0.997376,
    0.999157]},
  {
   "bufferView" : 4,
   "count" : 183100,
   "componentType" : 5126,
   "type" : "VEC2",
   "byteOffset" : 156480,
   "min" : [
    -0.022598,
    0.002015],
   "max" : [
    0.992868,
    0.999120]},
  {
   "bufferView" : 4,
   "count" : 120,
   "componentType" : 5126,
   "type" : "VEC2",
   "byteOffset" : 1621280,
   "min" : [
    0.089844,
    0.008524],
   "max" : [
    0.166314,
    0.231445]},
  {
   "bufferView" : 4,
   "count" : 2462,
   "componentType" : 5126,
   "type" : "VEC2",
   "byteOffset" : 1622240,
   "min" : [
    0.000977,
    0.002418],
   "max" : [
    0.975977,
    0.999023]}],
 "meshes" : [
  {
   "primitives" : [
    {
     "mode" : 4,
     "material" : 0,
     "indices" : 1,
     "attributes" : {
      "POSITION" : 7,
      "NORMAL" : 8,
      "TANGENT" : 6,
      "TEXCOORD_0" : 19}}]},
  {
   "primitives" : [
    {
     "mode" : 4,
     "material" : 1,
     "indices" : 2,
     "attributes" : {
      "POSITION" : 9,
      "NORMAL" : 10,
      "TEXCOORD_0" : 20}}]},
  {
   "primitives" : [
    {
     "mode" : 4,
     "material" : 2,
     "indices" : 3,
     "attributes" : {
      "POSITION" : 11,
      "NORMAL" : 12,
      "TEXCOORD_0" : 21}}]},
  {
   "primitives" : [
    {
     "mode" : 4,
     "material" : 3,
     "indices" : 0,
     "attributes" : {
      "POSITION" : 13,
      "NORMAL" : 14,
      "TEXCOORD_0" : 22}}]},
  {
   "primitives" : [
    {
     "mode" : 4,
     "material" : 4,
     "indices" : 4,
     "attributes" : {
      "POSITION" : 15,
      "NORMAL" : 16,
      "TEXCOORD_0" : 23}}]},
  {
   "primitives" : [
    {
     "mode" : 4,
     "material" : 5,
     "indices" : 5,
     "attributes" : {
      "POSITION" : 17,
      "NORMAL" : 18,
      "TEXCOORD_0" : 24}}]}],
 "materials" : [
  {
   "name" : "black_metal",
   "pbrMetallicRoughness" : {
    "baseColorFactor" : [0.090000, 0.090000, 0.090000, 1.000000],
    "metallicFactor" : 0.8,
    "roughnessFactor" : 0.6},
   "emissiveFactor" : [0.000000, 0.000000, 0.000000]},
  {
   "name" : "Color #2d523aff",
   "pbrMetallicRoughness" : {
    "baseColorFactor" : [0.180000, 0.322000, 0.231000, 1.000000],
    "metallicFactor" : 0,
    "roughnessFactor" : 1},
   "emissiveFactor" : [0.000000, 0.000000, 0.000000]},
  {
   "name" : "Color #4b4b4bff",
   "pbrMetallicRoughness" : {
    "baseColorFactor" : [0.100000, 0.100000, 0.100000, 1.000000],
    "metallicFactor" : 0.8,
    "roughnessFactor" : 0.6},
   "emissiveFactor" : [0.000000, 0.000000, 0.000000]},
  {
   "name" : "Color #959595ff",
   "pbrMetallicRoughness" : {
    "baseColorFactor" : [0.900000, 0.900000, 0.900000, 1.000000],
    "metallicFactor" : 0.282,
    "roughnessFactor" : 0.363},
   "emissiveFactor" : [0.000000, 0.000000, 0.000000]},
  {
   "name" : "Color #007fffff",
   "pbrMetallicRoughness" : {
    "baseColorFactor" : [0.000000, 0.500000, 1.000000, 1.000000],
    "metallicFactor" : 0,
    "roughnessFactor" : 1},
   "emissiveFactor" : [0.000000, 0.000000, 0.000000]},
  {
   "name" : "track_numbers",
   "pbrMetallicRoughness" : {
    "baseColorFactor" : [1.000000, 1.000000, 1.000000, 1.000000],
    "metallicFactor" : 0,
    "roughnessFactor" : 0},
   "emissiveFactor" : [0.000000, 0.000000, 0.000000]}],
 "samplers" : [
  {
}]}