{
 "asset" : {
  "generator" : "Generated by Pixyz Studio 2021.1 Update 1",
  "version" : "2.0"},
 "nodes" : [
  {
   "name" : "Color #00ff00ff",
   "matrix" : [
    0,
    -1,
    0,
    0,
    1,
    0,
    0,
    0,
    0,
    0,
    1,
    0,
    18.45,
    5,
    -15.95,
    1],
   "mesh" : 0},
  {
   "name" : "Color #ccccccff",
   "matrix" : [
    0,
    0,
    -1,
    0,
    0,
    1,
    0,
    0,
    1,
    0,
    0,
    0,
    11.95,
    -0.2,
    1.95,
    1],
   "mesh" : 1},
  {
   "name" : "186030_ENDANSCHLAG",
   "matrix" : [
    0,
    0,
    1,
    0,
    0,
    1,
    -0,
    0,
    -1,
    0,
    0,
    0,
    209.4,
    2.07,
    -641.551,
    1],
   "children" : [
    0,
    1],
   "extras" : {
    "__STEP/ProductName" : "186030_ENDANSCHLAG_ASM",
    "__STEP/ProductID" : "186030_ENDANSCHLAG_ASM",
    "__STEP/Description" : "NOT SPECIFIED",
    "__STEP/ProductDefinition" : "design",
    "__STEP/MakeOrBuy" : ".MADE."}},
  {
   "name" : "6607700-01_SKELETON",
   "matrix" : [
    1,
    0,
    -0,
    0,
    -0,
    1,
    0,
    0,
    0,
    0,
    1,
    0,
    0,
    0,
    0,
    1],
   "children" : [
    2],
   "extras" : {
    "__STEP/ProductName" : "6607700-01_SKELETON_ASM",
    "__STEP/ProductID" : "6607700-01_SKELETON_ASM",
    "__STEP/Description" : "NOT SPECIFIED",
    "__STEP/ProductDefinition" : "design",
    "__STEP/MakeOrBuy" : ".MADE."}},
  {
   "name" : "track_numbers",
   "matrix" : [
    1,
    0,
    0,
    0,
    0,
    0,
    -1,
    0,
    0,
    1,
    0,
    0,
    103.5,
    2,
    266.449,
    1],
   "mesh" : 2},
  {
   "name" : "6607700-01_HOUSING",
   "matrix" : [
    1,
    0,
    -0,
    0,
    -0,
    1,
    0,
    0,
    0,
    0,
    1,
    0,
    0,
    0,
    0,
    1],
   "children" : [
    4],
   "extras" : {
    "__STEP/ProductName" : "6607700-01_HOUSING_ASM",
    "__STEP/ProductID" : "6607700-01_HOUSING_ASM",
    "__STEP/Description" : "NOT SPECIFIED",
    "__STEP/ProductDefinition" : "design",
    "__STEP/MakeOrBuy" : ".MADE."}},
  {
   "name" : "black_metal",
   "mesh" : 3},
  {
   "name" : "sub_scanner_channel",
   "matrix" : [
    1654,
    0,
    0,
    0,
    0,
    50,
    0,
    0,
    0,
    0,
    150,
    0,
    827,
    -22.7,
    -59.4,
    1],
   "children" : [
    6]},
  {
   "name" : "Color #959595ff",
   "matrix" : [
    1,
    0,
    0,
    0,
    0,
    0,
    -1,
    0,
    0,
    1,
    0,
    0,
    846,
    2,
    266.449,
    1],
   "mesh" : 4},
  {
   "name" : "Color #323232ff",
   "matrix" : [
    0,
    0,
    -1,
    0,
    0,
    1,
    0,
    0,
    1,
    0,
    0,
    0,
    174.4,
    1.87,
    -611.551,
    1],
   "mesh" : 5},
  {
   "name" : "6607700-01_STAR_ASM",
   "matrix" : [
    1,
    0,
    0,
    0,
    0,
    1,
    0,
    0,
    0,
    0,
    1,
    0,
    -518.04,
    18.233,
    89.914,
    1],
   "children" : [
    3,
    5,
    7,
    8,
    9],
   "extras" : {
    "__STEP/ProductName" : "6607700-01_STAR_ASM",
    "__STEP/ProductID" : "6607700-01_STAR_ASM",
    "__STEP/Description" : "NOT SPECIFIED",
    "__STEP/ProductDefinition" : "design",
    "__STEP/MakeOrBuy" : ".MADE."}},
  {
   "name" : "6607700-01_star_asm.stp",
   "children" : [
    10]}],
 "scenes" : [
  {
   "name" : "Root",
   "nodes" : [
    11]}],
 "scene" : 0,
 "buffers" : [
  {
   "byteLength" : 6401944,
   "uri" : "star_deck.bin"}],
 "bufferViews" : [
  {
   "buffer" : 0,
   "byteOffset" : 0,
   "byteLength" : 1316520,
   "target" : 34963},
  {
   "buffer" : 0,
   "byteOffset" : 1316520,
   "byteLength" : 67248,
   "target" : 34963},
  {
   "buffer" : 0,
   "byteOffset" : 1383768,
   "byteLength" : 3763344,
   "byteStride" : 12,
   "target" : 34962},
  {
   "buffer" : 0,
   "byteOffset" : 6401560,
   "byteLength" : 384,
   "byteStride" : 16,
   "target" : 34962},
  {
   "buffer" : 0,
   "byteOffset" : 5147112,
   "byteLength" : 1254448,
   "byteStride" : 8,
   "target" : 34962}],
 "accessors" : [
  {
   "bufferView" : 0,
   "count" : 329130,
   "componentType" : 5125,
   "type" : "SCALAR",
   "byteOffset" : 0,
   "min" : [
    0],
   "max" : [
    144189]},
  {
   "bufferView" : 1,
   "count" : 360,
   "componentType" : 5123,
   "type" : "SCALAR",
   "byteOffset" : 0,
   "min" : [
    0],
   "max" : [
    139]},
  {
   "bufferView" : 1,
   "count" : 16884,
   "componentType" : 5123,
   "type" : "SCALAR",
   "byteOffset" : 720,
   "min" : [
    0],
   "max" : [
    5739]},
  {
   "bufferView" : 1,
   "count" : 4740,
   "componentType" : 5123,
   "type" : "SCALAR",
   "byteOffset" : 34488,
   "min" : [
    0],
   "max" : [
    1963]},
  {
   "bufferView" : 1,
   "count" : 36,
   "componentType" : 5123,
   "type" : "SCALAR",
   "byteOffset" : 43968,
   "min" : [
    0],
   "max" : [
    23]},
  {
   "bufferView" : 1,
   "count" : 11604,
   "componentType" : 5123,
   "type" : "SCALAR",
   "byteOffset" : 44040,
   "min" : [
    0],
   "max" : [
    4747]},
  {
   "bufferView" : 3,
   "count" : 24,
   "componentType" : 5126,
   "type" : "VEC4",
   "byteOffset" : 0,
   "min" : [
    -1.000000,
    -0.000000,
    -1.000000,
    1.000000],
   "max" : [
    1.000000,
    -0.000000,
    1.000000,
    1.000000]},
  {
   "bufferView" : 2,
   "count" : 140,
   "componentType" : 5126,
   "type" : "VEC3",
   "byteOffset" : 0,
   "min" : [
    0.000000,
    -2.000000,
    -145.912399],
   "max" : [
    8.000000,
    2.000000,
    1.912394]},
  {
   "bufferView" : 2,
   "count" : 140,
   "componentType" : 5126,
   "type" : "VEC3",
   "byteOffset" : 1680,
   "min" : [
    -0.999987,
    -1.000000,
    -0.956196],
   "max" : [
    0.999987,
    1.000000,
    0.956196]},
  {
   "bufferView" : 2,
   "count" : 5740,
   "componentType" : 5126,
   "type" : "VEC3",
   "byteOffset" : 3360,
   "min" : [
    0.000000,
    0.000000,
    0.000000],
   "max" : [
    1259.800049,
    13.500000,
    22.454666]},
  {
   "bufferView" : 2,
   "count" : 5740,
   "componentType" : 5126,
   "type" : "VEC3",
   "byteOffset" : 72240,
   "min" : [
    -1.000000,
    -1.000000,
    -1.000000],
   "max" : [
    1.000000,
    1.000000,
    1.000000]},
  {
   "bufferView" : 2,
   "count" : 1964,
   "componentType" : 5126,
   "type" : "VEC3",
   "byteOffset" : 141120,
   "min" : [
    112.028152,
    15.823529,
    0.000000],
   "max" : [
    1314.773560,
    25.000000,
    0.050000]},
  {
   "bufferView" : 2,
   "count" : 1964,
   "componentType" : 5126,
   "type" : "VEC3",
   "byteOffset" : 164688,
   "min" : [
    -1.000000,
    -1.000000,
    -1.000000],
   "max" : [
    1.000000,
    1.000000,
    1.000000]},
  {
   "bufferView" : 2,
   "count" : 24,
   "componentType" : 5126,
   "type" : "VEC3",
   "byteOffset" : 188256,
   "min" : [
    -0.500000,
    -0.500000,
    -0.500000],
   "max" : [
    0.500000,
    0.500000,
    0.500000]},
  {
   "bufferView" : 2,
   "count" : 24,
   "componentType" : 5126,
   "type" : "VEC3",
   "byteOffset" : 188544,
   "min" : [
    -1.000000,
    -1.000000,
    -1.000000],
   "max" : [
    1.000000,
    1.000000,
    1.000000]},
  {
   "bufferView" : 2,
   "count" : 4748,
   "componentType" : 5126,
   "type" : "VEC3",
   "byteOffset" : 188832,
   "min" : [
    -849.500000,
    -0.000000,
    -23.150000],
   "max" : [
    808.000000,
    945.500000,
    83.000000]},
  {
   "bufferView" : 2,
   "count" : 4748,
   "componentType" : 5126,
   "type" : "VEC3",
   "byteOffset" : 245808,
   "min" : [
    -1.000000,
    -1.000000,
    -1.000000],
   "max" : [
    1.000000,
    1.000000,
    1.000000]},
  {
   "bufferView" : 2,
   "count" : 144190,
   "componentType" : 5126,
   "type" : "VEC3",
   "byteOffset" : 302784,
   "min" : [
    -847.950012,
    -5.070000,
    0.000000],
   "max" : [
    30.000000,
    19.500000,
    1294.900024]},
  {
   "bufferView" : 2,
   "count" : 144190,
   "componentType" : 5126,
   "type" : "VEC3",
   "byteOffset" : 2033064,
   "min" : [
    -1.000000,
    -1.000000,
    -1.000000],
   "max" : [
    1.000000,
    1.000000,
    1.000000]},
  {
   "bufferView" : 4,
   "count" : 140,
   "componentType" : 5126,
   "type" : "VEC2",
   "byteOffset" : 0,
   "min" : [
    0.000977,
    0.002394],
   "max" : [
    0.888955,
    0.999023]},
  {
   "bufferView" : 4,
   "count" : 5740,
   "componentType" : 5126,
   "type" : "VEC2",
   "byteOffset" : 1120,
   "min" : [
    0.000977,
    0.024023],
   "max" : [
    0.422518,
    0.999023]},
  {
   "bufferView" : 4,
   "count" : 1964,
   "componentType" : 5126,
   "type" : "VEC2",
   "byteOffset" : 47040,
   "min" : [
    0.000977,
    0.002073],
   "max" : [
    0.975977,
    0.999023]},
  {
   "bufferView" : 4,
   "count" : 24,
   "componentType" : 5126,
   "type" : "VEC2",
   "byteOffset" : 62752,
   "min" : [
    0.000977,
    0.002584],
   "max" : [
    0.973979,
    0.999023]},
  {
   "bufferView" : 4,
   "count" : 4748,
   "componentType" : 5126,
   "type" : "VEC2",
   "byteOffset" : 62944,
   "min" : [
    0.000977,
    0.002254],
   "max" : [
    0.992806,
    0.999023]},
  {
   "bufferView" : 4,
   "count" : 144190,
   "componentType" : 5126,
   "type" : "VEC2",
   "byteOffset" : 100928,
   "min" : [
    0.000957,
    0.002237],
   "max" : [
    0.959995,
    0.999023]}],
 "meshes" : [
  {
   "primitives" : [
    {
     "mode" : 4,
     "material" : 0,
     "indices" : 1,
     "attributes" : {
      "POSITION" : 7,
      "NORMAL" : 8,
      "TEXCOORD_0" : 19}}]},
  {
   "primitives" : [
    {
     "mode" : 4,
     "material" : 1,
     "indices" : 2,
     "attributes" : {
      "POSITION" : 9,
      "NORMAL" : 10,
      "TEXCOORD_0" : 20}}]},
  {
   "primitives" : [
    {
     "mode" : 4,
     "material" : 2,
     "indices" : 3,
     "attributes" : {
      "POSITION" : 11,
      "NORMAL" : 12,
      "TEXCOORD_0" : 21}}]},
  {
   "primitives" : [
    {
     "mode" : 4,
     "material" : 3,
     "indices" : 4,
     "attributes" : {
      "POSITION" : 13,
      "NORMAL" : 14,
      "TANGENT" : 6,
      "TEXCOORD_0" : 22}}]},
  {
   "primitives" : [
    {
     "mode" : 4,
     "material" : 4,
     "indices" : 5,
     "attributes" : {
      "POSITION" : 15,
      "NORMAL" : 16,
      "TEXCOORD_0" : 23}}]},
  {
   "primitives" : [
    {
     "mode" : 4,
     "material" : 5,
     "indices" : 0,
     "attributes" : {
      "POSITION" : 17,
      "NORMAL" : 18,
      "TEXCOORD_0" : 24}}]}],
 "materials" : [
  {
   "name" : "Color #00ff00ff",
   "pbrMetallicRoughness" : {
    "baseColorFactor" : [0.800000, 0.800000, 0.800000, 1.000000],
    "metallicFactor" : 0.99,
    "roughnessFactor" : 0.1},
   "emissiveFactor" : [0.000000, 0.000000, 0.000000]},
  {
   "name" : "Color #ccccccff",
   "pbrMetallicRoughness" : {
    "baseColorFactor" : [0.800000, 0.800000, 0.800000, 1.000000],
    "metallicFactor" : 0,
    "roughnessFactor" : 1},
   "emissiveFactor" : [0.000000, 0.000000, 0.000000]},
  {
   "name" : "track_numbers",
   "pbrMetallicRoughness" : {
    "baseColorFactor" : [1.000000, 1.000000, 1.000000, 1.000000],
    "metallicFactor" : 0,
    "roughnessFactor" : 0},
   "emissiveFactor" : [0.000000, 0.000000, 0.000000]},
  {
   "name" : "black_metal",
   "pbrMetallicRoughness" : {
    "baseColorFactor" : [0.090000, 0.090000, 0.090000, 1.000000],
    "metallicFactor" : 0.8,
    "roughnessFactor" : 0.6},
   "emissiveFactor" : [0.000000, 0.000000, 0.000000]},
  {
   "name" : "Color #959595ff",
   "pbrMetallicRoughness" : {
    "baseColorFactor" : [0.900000, 0.900000, 0.900000, 1.000000],
    "metallicFactor" : 0.282,
    "roughnessFactor" : 0.363},
   "emissiveFactor" : [0.000000, 0.000000, 0.000000]},
  {
   "name" : "Color #323232ff",
   "pbrMetallicRoughness" : {
    "baseColorFactor" : [0.070000, 0.070000, 0.070000, 1.000000],
    "metallicFactor" : 0.8,
    "roughnessFactor" : 0.6},
   "emissiveFactor" : [0.000000, 0.000000, 0.000000]}],
 "samplers" : [
  {
}]}