{
 "asset" : {
  "generator" : "Generated by Pixyz Studio 2021.1 Update 1",
  "version" : "2.0"},
 "nodes" : [
  {
   "name" : "Color #00ff00ff",
   "matrix" : [
    0,
    -1,
    0,
    0,
    1,
    0,
    0,
    0,
    0,
    0,
    1,
    0,
    18.45,
    5,
    -555.95,
    1],
   "mesh" : 0},
  {
   "name" : "Color #aab1c3ff",
   "matrix" : [
    0,
    0,
    -1,
    0,
    0,
    1,
    0,
    0,
    1,
    0,
    0,
    0,
    11.95,
    -0.2,
    1.95,
    1],
   "mesh" : 1},
  {
   "name" : "Color #333333ff",
   "matrix" : [
    -1,
    0,
    0,
    0,
    0,
    1,
    0,
    0,
    0,
    0,
    -1,
    0,
    30,
    -0.2,
    35,
    1],
   "mesh" : 2},
  {
   "name" : "173020_ENDANSCHLAG",
   "matrix" : [
    0,
    0,
    1,
    0,
    0,
    1,
    -0,
    0,
    -1,
    0,
    0,
    0,
    209.4,
    129.077,
    4.2887,
    1],
   "children" : [
    0,
    1,
    2],
   "extras" : {
    "__STEP/ProductName" : "173020_ENDANSCHLAG_ASM",
    "__STEP/ProductID" : "173020_ENDANSCHLAG_ASM",
    "__STEP/Description" : "NOT SPECIFIED",
    "__STEP/ProductDefinition" : "design",
    "__STEP/MakeOrBuy" : ".MADE."}},
  {
   "name" : "Color #000000ff",
   "matrix" : [
    0,
    0,
    1,
    0,
    0,
    1,
    0,
    0,
    -1,
    0,
    0,
    0,
    122,
    -2.5,
    -38.425,
    1],
   "mesh" : 3},
  {
   "name" : "173000_EINZUG_SCHLUSS",
   "matrix" : [
    1,
    0,
    -0,
    0,
    -0,
    1,
    0,
    0,
    0,
    0,
    1,
    0,
    742.5,
    128.877,
    660.2887,
    1],
   "children" : [
    4],
   "extras" : {
    "__STEP/ProductName" : "173000_EINZUG_SCHLUSS_ASM",
    "__STEP/ProductID" : "173000_EINZUG_SCHLUSS_ASM",
    "__STEP/Description" : "NOT SPECIFIED",
    "__STEP/ProductDefinition" : "design",
    "__STEP/MakeOrBuy" : ".MADE."}},
  {
   "name" : "Color #323232ff",
   "mesh" : 4},
  {
   "name" : "6607701-01_SKELETON",
   "matrix" : [
    1,
    0,
    -0,
    0,
    -0,
    1,
    0,
    0,
    0,
    0,
    1,
    0,
    0,
    0,
    0,
    1],
   "children" : [
    3,
    5,
    6],
   "extras" : {
    "__STEP/ProductName" : "6607701-01_SKELETON_ASM",
    "__STEP/ProductID" : "6607701-01_SKELETON_ASM",
    "__STEP/Description" : "NOT SPECIFIED",
    "__STEP/ProductDefinition" : "design",
    "__STEP/MakeOrBuy" : ".MADE."}},
  {
   "name" : "track_numbers",
   "mesh" : 5},
  {
   "name" : "10139673-RNO_GRAVUR",
   "matrix" : [
    1,
    0,
    0,
    0,
    0,
    0,
    -1,
    0,
    -0,
    1,
    0,
    0,
    -452.5,
    2,
    125,
    1],
   "children" : [
    8],
   "extras" : {
    "__STEP/ProductName" : "10139673-RNO_GRAVUR",
    "__STEP/ProductID" : "10139673-RNO_GRAVUR",
    "__STEP/Description" : "NOT SPECIFIED",
    "__STEP/ProductDefinition" : "design",
    "__STEP/MakeOrBuy" : ".MADE.",
    "material_property/density" : "1.000000",
    "material property/material name" : "Für Import-Files (z.B. Fremdgeräte)"}},
  {
   "name" : "10141155-RNO",
   "matrix" : [
    1,
    0,
    -0,
    0,
    -0,
    1,
    0,
    0,
    0,
    0,
    1,
    0,
    0,
    0,
    0,
    1],
   "children" : [
    9],
   "extras" : {
    "__STEP/ProductName" : "10141155-RNO_ASM",
    "__STEP/ProductID" : "10141155-RNO_ASM",
    "__STEP/Description" : "NOT SPECIFIED",
    "__STEP/ProductDefinition" : "design",
    "__STEP/MakeOrBuy" : ".MADE."}},
  {
   "name" : "NoMaterial",
   "matrix" : [
    -1,
    0,
    0,
    0,
    -0,
    -1,
    0,
    0,
    0,
    0,
    1,
    0,
    -365.5,
    -3.855968,
    -86,
    1],
   "mesh" : 6},
  {
   "name" : "10139673-RNO",
   "matrix" : [
    1,
    0,
    -0,
    0,
    -0,
    1,
    0,
    0,
    0,
    0,
    1,
    0,
    0,
    0,
    0,
    1],
   "children" : [
    10,
    11],
   "extras" : {
    "__STEP/ProductName" : "10139673-RNO_ASM",
    "__STEP/ProductID" : "10139673-RNO_ASM",
    "__STEP/Description" : "NOT SPECIFIED",
    "__STEP/ProductDefinition" : "design",
    "__STEP/MakeOrBuy" : ".MADE."}},
  {
   "name" : "10141218-RNO",
   "matrix" : [
    1,
    0,
    -0,
    0,
    -0,
    1,
    0,
    0,
    0,
    0,
    1,
    0,
    0,
    -2,
    125,
    1],
   "children" : [
    12],
   "extras" : {
    "__STEP/ProductName" : "10141218-RNO_ASM",
    "__STEP/ProductID" : "10141218-RNO_ASM",
    "__STEP/Description" : "NOT SPECIFIED",
    "__STEP/ProductDefinition" : "design",
    "__STEP/MakeOrBuy" : ".MADE."}},
  {
   "name" : "870100_STARLET_TABLE_COVER",
   "matrix" : [
    1,
    0,
    -0,
    0,
    -0,
    1,
    0,
    0,
    0,
    0,
    1,
    0,
    556,
    129,
    662.2851,
    1],
   "children" : [
    13],
   "extras" : {
    "__STEP/ProductName" : "870100_STARLET_TABLE_COVER_ASM",
    "__STEP/ProductID" : "870100_STARLET_TABLE_COVER_ASM",
    "__STEP/Description" : "NOT SPECIFIED",
    "__STEP/ProductDefinition" : "design",
    "__STEP/MakeOrBuy" : ".MADE."}},
  {
   "name" : "6607701-01_HOUSING",
   "matrix" : [
    1,
    0,
    -0,
    0,
    -0,
    1,
    0,
    0,
    0,
    0,
    1,
    0,
    0,
    0.007,
    0,
    1],
   "children" : [
    14],
   "extras" : {
    "__STEP/ProductName" : "6607701-01_HOUSING_ASM",
    "__STEP/ProductID" : "6607701-01_HOUSING_ASM",
    "__STEP/Description" : "NOT SPECIFIED",
    "__STEP/ProductDefinition" : "design",
    "__STEP/MakeOrBuy" : ".MADE."}},
  {
   "name" : "black_metal",
   "mesh" : 7},
  {
   "name" : "sub_scanner_channel",
   "matrix" : [
    1120,
    0,
    0,
    0,
    0,
    50,
    0,
    0,
    0,
    0,
    150,
    0,
    556,
    104.492,
    586.237,
    1],
   "children" : [
    16]},
  {
   "name" : "Color #4b4b4bff",
   "matrix" : [
    0,
    0,
    -1,
    0,
    0,
    1,
    0,
    0,
    1,
    0,
    0,
    0,
    207.3,
    133.177,
    461.6887,
    1],
   "mesh" : 8},
  {
   "name" : "Color #959595ff",
   "matrix" : [
    1,
    0,
    0,
    0,
    0,
    0,
    -1,
    0,
    0,
    1,
    0,
    0,
    193.5,
    129.007,
    912.2851,
    1],
   "mesh" : 9},
  {
   "name" : "6607701-01_STARLET_ASM",
   "matrix" : [
    1,
    0,
    0,
    0,
    0,
    1,
    0,
    0,
    0,
    0,
    1,
    0,
    -518.04,
    -112.25,
    -560.4,
    1],
   "children" : [
    7,
    15,
    17,
    18,
    19],
   "extras" : {
    "__STEP/ProductName" : "6607701-01_STARLET_ASM",
    "__STEP/ProductID" : "6607701-01_STARLET_ASM",
    "__STEP/Description" : "NOT SPECIFIED",
    "__STEP/ProductDefinition" : "design",
    "__STEP/MakeOrBuy" : ".MADE."}},
  {
   "name" : "6607701-01_starlet_asm.stp",
   "children" : [
    20]}],
 "scenes" : [
  {
   "name" : "Root",
   "nodes" : [
    21]}],
 "scene" : 0,
 "buffers" : [
  {
   "byteLength" : 3829460,
   "uri" : "starlet_deck.bin"}],
 "bufferViews" : [
  {
   "buffer" : 0,
   "byteOffset" : 0,
   "byteLength" : 642816,
   "target" : 34963},
  {
   "buffer" : 0,
   "byteOffset" : 642816,
   "byteLength" : 125172,
   "target" : 34963},
  {
   "buffer" : 0,
   "byteOffset" : 767988,
   "byteLength" : 2295816,
   "byteStride" : 12,
   "target" : 34962},
  {
   "buffer" : 0,
   "byteOffset" : 3829076,
   "byteLength" : 384,
   "byteStride" : 16,
   "target" : 34962},
  {
   "buffer" : 0,
   "byteOffset" : 3063804,
   "byteLength" : 765272,
   "byteStride" : 8,
   "target" : 34962}],
 "accessors" : [
  {
   "bufferView" : 0,
   "count" : 160704,
   "componentType" : 5125,
   "type" : "SCALAR",
   "byteOffset" : 0,
   "min" : [
    0],
   "max" : [
    72725]},
  {
   "bufferView" : 1,
   "count" : 360,
   "componentType" : 5123,
   "type" : "SCALAR",
   "byteOffset" : 0,
   "min" : [
    0],
   "max" : [
    139]},
  {
   "bufferView" : 1,
   "count" : 9648,
   "componentType" : 5123,
   "type" : "SCALAR",
   "byteOffset" : 720,
   "min" : [
    0],
   "max" : [
    3279]},
  {
   "bufferView" : 1,
   "count" : 13254,
   "componentType" : 5123,
   "type" : "SCALAR",
   "byteOffset" : 20016,
   "min" : [
    0],
   "max" : [
    4933]},
  {
   "bufferView" : 1,
   "count" : 1290,
   "componentType" : 5123,
   "type" : "SCALAR",
   "byteOffset" : 46524,
   "min" : [
    0],
   "max" : [
    574]},
  {
   "bufferView" : 1,
   "count" : 10722,
   "componentType" : 5123,
   "type" : "SCALAR",
   "byteOffset" : 49104,
   "min" : [
    0],
   "max" : [
    3627]},
  {
   "bufferView" : 1,
   "count" : 2496,
   "componentType" : 5123,
   "type" : "SCALAR",
   "byteOffset" : 70548,
   "min" : [
    0],
   "max" : [
    1019]},
  {
   "bufferView" : 1,
   "count" : 1296,
   "componentType" : 5123,
   "type" : "SCALAR",
   "byteOffset" : 75540,
   "min" : [
    0],
   "max" : [
    575]},
  {
   "bufferView" : 1,
   "count" : 36,
   "componentType" : 5123,
   "type" : "SCALAR",
   "byteOffset" : 78132,
   "min" : [
    0],
   "max" : [
    23]},
  {
   "bufferView" : 1,
   "count" : 23484,
   "componentType" : 5123,
   "type" : "SCALAR",
   "byteOffset" : 78204,
   "min" : [
    0],
   "max" : [
    8755]},
  {
   "bufferView" : 3,
   "count" : 24,
   "componentType" : 5126,
   "type" : "VEC4",
   "byteOffset" : 0,
   "min" : [
    -1.000000,
    -0.000000,
    -1.000000,
    1.000000],
   "max" : [
    1.000000,
    -0.000000,
    1.000000,
    1.000000]},
  {
   "bufferView" : 2,
   "count" : 140,
   "componentType" : 5126,
   "type" : "VEC3",
   "byteOffset" : 0,
   "min" : [
    0.000000,
    -2.000000,
    -145.912399],
   "max" : [
    8.000000,
    2.000000,
    1.912394]},
  {
   "bufferView" : 2,
   "count" : 140,
   "componentType" : 5126,
   "type" : "VEC3",
   "byteOffset" : 1680,
   "min" : [
    -0.999987,
    -1.000000,
    -0.956196],
   "max" : [
    0.999987,
    1.000000,
    0.956196]},
  {
   "bufferView" : 2,
   "count" : 3280,
   "componentType" : 5126,
   "type" : "VEC3",
   "byteOffset" : 3360,
   "min" : [
    0.000000,
    0.000000,
    0.000000],
   "max" : [
    719.799988,
    13.500000,
    22.454666]},
  {
   "bufferView" : 2,
   "count" : 3280,
   "componentType" : 5126,
   "type" : "VEC3",
   "byteOffset" : 42720,
   "min" : [
    -1.000000,
    -1.000000,
    -1.000000],
   "max" : [
    1.000000,
    1.000000,
    1.000000]},
  {
   "bufferView" : 2,
   "count" : 4934,
   "componentType" : 5126,
   "type" : "VEC3",
   "byteOffset" : 82080,
   "min" : [
    -4.450000,
    0.000000,
    0.000000],
   "max" : [
    30.000000,
    19.500000,
    754.900024]},
  {
   "bufferView" : 2,
   "count" : 4934,
   "componentType" : 5126,
   "type" : "VEC3",
   "byteOffset" : 141288,
   "min" : [
    -1.000000,
    -1.000000,
    -1.000000],
   "max" : [
    1.000000,
    1.000000,
    1.000000]},
  {
   "bufferView" : 2,
   "count" : 575,
   "componentType" : 5126,
   "type" : "VEC3",
   "byteOffset" : 200496,
   "min" : [
    -18.909212,
    -6.806399,
    -2.500000],
   "max" : [
    4.695741,
    5.000000,
    97.769356]},
  {
   "bufferView" : 2,
   "count" : 575,
   "componentType" : 5126,
   "type" : "VEC3",
   "byteOffset" : 207396,
   "min" : [
    -0.983916,
    -1.000000,
    -1.000000],
   "max" : [
    1.000000,
    1.000000,
    1.000000]},
  {
   "bufferView" : 2,
   "count" : 3628,
   "componentType" : 5126,
   "type" : "VEC3",
   "byteOffset" : 214296,
   "min" : [
    125.993401,
    122.577003,
    512.021729],
   "max" : [
    1097.499512,
    136.316452,
    660.288696]},
  {
   "bufferView" : 2,
   "count" : 3628,
   "componentType" : 5126,
   "type" : "VEC3",
   "byteOffset" : 257832,
   "min" : [
    -1.000000,
    -1.000000,
    -1.000000],
   "max" : [
    1.000000,
    1.000000,
    1.000000]},
  {
   "bufferView" : 2,
   "count" : 1020,
   "componentType" : 5126,
   "type" : "VEC3",
   "byteOffset" : 301368,
   "min" : [
    112.028152,
    15.823529,
    0.000000],
   "max" : [
    774.036133,
    25.000000,
    0.050000]},
  {
   "bufferView" : 2,
   "count" : 1020,
   "componentType" : 5126,
   "type" : "VEC3",
   "byteOffset" : 313608,
   "min" : [
    -1.000000,
    -1.000000,
    -1.000000],
   "max" : [
    1.000000,
    1.000000,
    1.000000]},
  {
   "bufferView" : 2,
   "count" : 576,
   "componentType" : 5126,
   "type" : "VEC3",
   "byteOffset" : 325848,
   "min" : [
    -732.364685,
    -0.800000,
    -1.364684],
   "max" : [
    1.364684,
    1.059375,
    143.364685]},
  {
   "bufferView" : 2,
   "count" : 576,
   "componentType" : 5126,
   "type" : "VEC3",
   "byteOffset" : 332760,
   "min" : [
    -0.500000,
    -0.866025,
    -0.500000],
   "max" : [
    0.500000,
    0.866025,
    0.500000]},
  {
   "bufferView" : 2,
   "count" : 24,
   "componentType" : 5126,
   "type" : "VEC3",
   "byteOffset" : 339672,
   "min" : [
    -0.500000,
    -0.500000,
    -0.500000],
   "max" : [
    0.500000,
    0.500000,
    0.500000]},
  {
   "bufferView" : 2,
   "count" : 24,
   "componentType" : 5126,
   "type" : "VEC3",
   "byteOffset" : 339960,
   "min" : [
    -1.000000,
    -1.000000,
    -1.000000],
   "max" : [
    1.000000,
    1.000000,
    1.000000]},
  {
   "bufferView" : 2,
   "count" : 72726,
   "componentType" : 5126,
   "type" : "VEC3",
   "byteOffset" : 340248,
   "min" : [
    -420.396393,
    -7.100000,
    -3.053267],
   "max" : [
    367.500000,
    2.861180,
    677.903259]},
  {
   "bufferView" : 2,
   "count" : 72726,
   "componentType" : 5126,
   "type" : "VEC3",
   "byteOffset" : 1212960,
   "min" : [
    -1.000000,
    -1.000000,
    -1.000000],
   "max" : [
    1.000000,
    1.000000,
    1.000000]},
  {
   "bufferView" : 2,
   "count" : 8756,
   "componentType" : 5126,
   "type" : "VEC3",
   "byteOffset" : 2085672,
   "min" : [
    -197.000000,
    -0.000000,
    -28.000000],
   "max" : [
    922.000000,
    945.496399,
    83.000000]},
  {
   "bufferView" : 2,
   "count" : 8756,
   "componentType" : 5126,
   "type" : "VEC3",
   "byteOffset" : 2190744,
   "min" : [
    -1.000000,
    -1.000000,
    -1.000000],
   "max" : [
    1.000000,
    1.000000,
    1.000000]},
  {
   "bufferView" : 4,
   "count" : 140,
   "componentType" : 5126,
   "type" : "VEC2",
   "byteOffset" : 0,
   "min" : [
    0.000977,
    0.002394],
   "max" : [
    0.888955,
    0.999023]},
  {
   "bufferView" : 4,
   "count" : 3280,
   "componentType" : 5126,
   "type" : "VEC2",
   "byteOffset" : 1120,
   "min" : [
    0.000977,
    0.004178],
   "max" : [
    0.533013,
    0.999023]},
  {
   "bufferView" : 4,
   "count" : 4934,
   "componentType" : 5126,
   "type" : "VEC2",
   "byteOffset" : 27360,
   "min" : [
    0.000977,
    0.002237],
   "max" : [
    0.959995,
    0.999023]},
  {
   "bufferView" : 4,
   "count" : 575,
   "componentType" : 5126,
   "type" : "VEC2",
   "byteOffset" : 66832,
   "min" : [
    -0.001516,
    0.015232],
   "max" : [
    0.393705,
    0.999023]},
  {
   "bufferView" : 4,
   "count" : 3628,
   "componentType" : 5126,
   "type" : "VEC2",
   "byteOffset" : 71432,
   "min" : [
    0.000908,
    0.002099],
   "max" : [
    0.299373,
    0.999023]},
  {
   "bufferView" : 4,
   "count" : 1020,
   "componentType" : 5126,
   "type" : "VEC2",
   "byteOffset" : 100456,
   "min" : [
    0.000977,
    0.002853],
   "max" : [
    0.953177,
    0.999023]},
  {
   "bufferView" : 4,
   "count" : 576,
   "componentType" : 5126,
   "type" : "VEC2",
   "byteOffset" : 108616,
   "min" : [
    0.639336,
    0.016795],
   "max" : [
    0.901514,
    0.984771]},
  {
   "bufferView" : 4,
   "count" : 24,
   "componentType" : 5126,
   "type" : "VEC2",
   "byteOffset" : 113224,
   "min" : [
    0.000977,
    0.002584],
   "max" : [
    0.973979,
    0.999023]},
  {
   "bufferView" : 4,
   "count" : 72726,
   "componentType" : 5126,
   "type" : "VEC2",
   "byteOffset" : 113416,
   "min" : [
    0.000957,
    0.003295],
   "max" : [
    0.780094,
    1.007826]},
  {
   "bufferView" : 4,
   "count" : 8756,
   "componentType" : 5126,
   "type" : "VEC2",
   "byteOffset" : 695224,
   "min" : [
    0.000977,
    0.002228],
   "max" : [
    0.986502,
    0.999023]}],
 "meshes" : [
  {
   "primitives" : [
    {
     "mode" : 4,
     "material" : 0,
     "indices" : 1,
     "attributes" : {
      "POSITION" : 11,
      "NORMAL" : 12,
      "TEXCOORD_0" : 31}}]},
  {
   "primitives" : [
    {
     "mode" : 4,
     "material" : 1,
     "indices" : 2,
     "attributes" : {
      "POSITION" : 13,
      "NORMAL" : 14,
      "TEXCOORD_0" : 32}}]},
  {
   "primitives" : [
    {
     "mode" : 4,
     "material" : 2,
     "indices" : 3,
     "attributes" : {
      "POSITION" : 15,
      "NORMAL" : 16,
      "TEXCOORD_0" : 33}}]},
  {
   "primitives" : [
    {
     "mode" : 4,
     "material" : 3,
     "indices" : 4,
     "attributes" : {
      "POSITION" : 17,
      "NORMAL" : 18,
      "TEXCOORD_0" : 34}}]},
  {
   "primitives" : [
    {
     "mode" : 4,
     "material" : 4,
     "indices" : 5,
     "attributes" : {
      "POSITION" : 19,
      "NORMAL" : 20,
      "TEXCOORD_0" : 35}}]},
  {
   "primitives" : [
    {
     "mode" : 4,
     "material" : 5,
     "indices" : 6,
     "attributes" : {
      "POSITION" : 21,
      "NORMAL" : 22,
      "TEXCOORD_0" : 36}}]},
  {
   "primitives" : [
    {
     "mode" : 4,
     "indices" : 7,
     "attributes" : {
      "POSITION" : 23,
      "NORMAL" : 24,
      "TEXCOORD_0" : 37}}]},
  {
   "primitives" : [
    {
     "mode" : 4,
     "material" : 6,
     "indices" : 8,
     "attributes" : {
      "POSITION" : 25,
      "NORMAL" : 26,
      "TANGENT" : 10,
      "TEXCOORD_0" : 38}}]},
  {
   "primitives" : [
    {
     "mode" : 4,
     "material" : 7,
     "indices" : 0,
     "attributes" : {
      "POSITION" : 27,
      "NORMAL" : 28,
      "TEXCOORD_0" : 39}}]},
  {
   "primitives" : [
    {
     "mode" : 4,
     "material" : 8,
     "indices" : 9,
     "attributes" : {
      "POSITION" : 29,
      "NORMAL" : 30,
      "TEXCOORD_0" : 40}}]}],
 "materials" : [
  {
   "name" : "Color #00ff00ff",
   "pbrMetallicRoughness" : {
    "baseColorFactor" : [0.800000, 0.800000, 0.800000, 1.000000],
    "metallicFactor" : 0.99,
    "roughnessFactor" : 0.1},
   "emissiveFactor" : [0.000000, 0.000000, 0.000000]},
  {
   "name" : "Color #aab1c3ff",
   "pbrMetallicRoughness" : {
    "baseColorFactor" : [0.666667, 0.698039, 0.768627, 1.000000],
    "metallicFactor" : 0,
    "roughnessFactor" : 1},
   "emissiveFactor" : [0.000000, 0.000000, 0.000000]},
  {
   "name" : "Color #333333ff",
   "pbrMetallicRoughness" : {
    "baseColorFactor" : [0.200000, 0.200000, 0.200000, 1.000000],
    "metallicFactor" : 0,
    "roughnessFactor" : 1},
   "emissiveFactor" : [0.000000, 0.000000, 0.000000]},
  {
   "name" : "Color #000000ff",
   "pbrMetallicRoughness" : {
    "baseColorFactor" : [0.000000, 0.000000, 0.000000, 1.000000],
    "metallicFactor" : 0,
    "roughnessFactor" : 1},
   "emissiveFactor" : [0.000000, 0.000000, 0.000000]},
  {
   "name" : "Color #323232ff",
   "pbrMetallicRoughness" : {
    "baseColorFactor" : [0.070000, 0.070000, 0.070000, 1.000000],
    "metallicFactor" : 0.8,
    "roughnessFactor" : 0.6},
   "emissiveFactor" : [0.000000, 0.000000, 0.000000]},
  {
   "name" : "track_numbers",
   "pbrMetallicRoughness" : {
    "baseColorFactor" : [1.000000, 1.000000, 1.000000, 1.000000],
    "metallicFactor" : 0,
    "roughnessFactor" : 0},
   "emissiveFactor" : [0.000000, 0.000000, 0.000000]},
  {
   "name" : "black_metal",
   "pbrMetallicRoughness" : {
    "baseColorFactor" : [0.090000, 0.090000, 0.090000, 1.000000],
    "metallicFactor" : 0.8,
    "roughnessFactor" : 0.6},
   "emissiveFactor" : [0.000000, 0.000000, 0.000000]},
  {
   "name" : "Color #4b4b4bff",
   "pbrMetallicRoughness" : {
    "baseColorFactor" : [0.100000, 0.100000, 0.100000, 1.000000],
    "metallicFactor" : 0.8,
    "roughnessFactor" : 0.6},
   "emissiveFactor" : [0.000000, 0.000000, 0.000000]},
  {
   "name" : "Color #959595ff",
   "pbrMetallicRoughness" : {
    "baseColorFactor" : [0.900000, 0.900000, 0.900000, 1.000000],
    "metallicFactor" : 0.282,
    "roughnessFactor" : 0.363},
   "emissiveFactor" : [0.000000, 0.000000, 0.000000]}],
 "samplers" : [
  {
}]}